<svg width="20" height="20" viewBox="0 0 20 20" fill="none" xmlns="http://www.w3.org/2000/svg">
<path d="M1.75 19C1.33594 19 1 18.6641 1 18.25V10.4717C1 9.99609 1.19727 9.53418 1.54102 9.20606L3.76465 7.08399C4.06153 6.79786 4.53906 6.80762 4.82422 7.1084C5.11035 7.40723 5.09961 7.88281 4.79981 8.16797L2.57715 10.29C2.52735 10.3379 2.5 10.4023 2.5 10.4717V18.25C2.5 18.6641 2.16406 19 1.75 19Z" fill="#58181D"/>
<path d="M4.25 19.0088C3.83594 19.0088 3.5 18.6728 3.5 18.2588V11.8164C3.5 11.4023 3.83594 11.0664 4.25 11.0664C4.66406 11.0664 5 11.4023 5 11.8164V18.2588C5 18.6728 4.66406 19.0088 4.25 19.0088Z" fill="#58181D"/>
<path d="M17.75 19H15.75C15.3359 19 15 18.6641 15 18.25C15 17.8359 15.3359 17.5 15.75 17.5H17.75C18.1631 17.5 18.5 17.1631 18.5 16.75V10.25C18.5 9.83691 18.1631 9.5 17.75 9.5H15.75C15.3359 9.5 15 9.16406 15 8.75C15 8.33594 15.3359 8 15.75 8H17.75C18.9902 8 20 9.00977 20 10.25V16.75C20 17.9902 18.9902 19 17.75 19Z" fill="#58181D"/>
<path d="M11.4775 3H10.75V1.75C10.75 1.33594 10.4141 1 10 1C9.58594 1 9.25 1.33594 9.25 1.75V3H8.52246C7.13184 3 6 4.00977 6 5.25V16.75C6 17.9902 7.13184 19 8.52246 19H11.4775C12.8682 19 14 17.9902 14 16.75V5.25C14 4.00977 12.8682 3 11.4775 3ZM12.5 16.75C12.5 17.1562 12.0322 17.5 11.4775 17.5H8.52246C7.96777 17.5 7.5 17.1562 7.5 16.75V5.25C7.5 4.84375 7.96777 4.5 8.52246 4.5H11.4775C12.0322 4.5 12.5 4.84375 12.5 5.25V16.75Z" fill="#58181D"/>
<path d="M8.72949 7C8.62988 7 8.53027 6.97949 8.43945 6.93945C8.34961 6.89941 8.26953 6.84961 8.20019 6.78027C8.12988 6.70996 8.06933 6.62988 8.03027 6.54004C8 6.4502 7.97949 6.34961 7.97949 6.25C7.97949 6.14941 8 6.0498 8.03027 5.95996C8.06933 5.87012 8.12988 5.79004 8.20019 5.71973C8.26953 5.64942 8.3496 5.59961 8.43945 5.55957C8.62988 5.47949 8.83007 5.47949 9.01953 5.55957C9.10937 5.59961 9.18945 5.64941 9.25976 5.71973C9.39941 5.85938 9.47949 6.04981 9.47949 6.25C9.47949 6.45019 9.39941 6.63965 9.25976 6.78027C9.18945 6.84961 9.10937 6.89941 9.01953 6.93945C8.91992 6.97949 8.83008 7 8.72949 7Z" fill="#58181D"/>
<path d="M11.25 7C11.1494 7 11.0498 6.97949 10.96 6.93945C10.8701 6.91015 10.79 6.84961 10.7197 6.78027C10.6494 6.70996 10.5996 6.62988 10.5596 6.54004C10.5195 6.4502 10.5 6.34961 10.5 6.25C10.5 6.14941 10.5195 6.0498 10.5596 5.95996C10.5996 5.87012 10.6494 5.79004 10.7197 5.71973C10.7901 5.64942 10.8701 5.59961 10.96 5.55957C11.1494 5.47949 11.3594 5.47949 11.54 5.55957C11.6299 5.59961 11.71 5.64941 11.7803 5.71973C11.8496 5.79004 11.9102 5.87012 11.9395 5.95996C11.9795 6.0498 12 6.14941 12 6.25C12 6.34961 11.9795 6.4502 11.9395 6.54004C11.9102 6.62988 11.8496 6.70996 11.7803 6.78027C11.71 6.84961 11.6299 6.91015 11.54 6.93945C11.4502 6.97949 11.3496 7 11.25 7Z" fill="#58181D"/>
<path d="M8.7295 10C8.62989 10 8.53028 9.97949 8.43946 9.93945C8.34962 9.91015 8.26954 9.84961 8.2002 9.78027C8.12989 9.70996 8.06934 9.62988 8.04004 9.54004C8 9.4502 7.97949 9.34961 7.97949 9.25C7.97949 9.14941 8 9.0498 8.04004 8.95996C8.06934 8.87012 8.12988 8.79004 8.2002 8.71973C8.26954 8.64942 8.34961 8.59961 8.43946 8.55957C8.62012 8.47949 8.83008 8.47949 9.01954 8.55957C9.10938 8.59961 9.18946 8.64941 9.25977 8.71973C9.39942 8.85938 9.4795 9.04981 9.4795 9.25C9.4795 9.45019 9.39942 9.63965 9.25977 9.78027C9.18946 9.84961 9.10938 9.91015 9.01954 9.93945C8.91993 9.97949 8.81934 10 8.7295 10Z" fill="#58181D"/>
<path d="M11.25 10C11.1494 10 11.0498 9.97949 10.96 9.93945C10.8701 9.91015 10.79 9.84961 10.7197 9.78027C10.5801 9.63965 10.5 9.45019 10.5 9.25C10.5 9.04981 10.5801 8.85938 10.7197 8.71973C10.79 8.64942 10.8701 8.59961 10.96 8.55957C11.1494 8.47949 11.3594 8.47949 11.54 8.55957C11.6299 8.59961 11.71 8.64941 11.7803 8.71973C11.8496 8.79004 11.9102 8.87012 11.9395 8.95996C11.9795 9.0498 12 9.14941 12 9.25C12 9.34961 11.9795 9.4502 11.9395 9.54004C11.9102 9.62988 11.8496 9.70996 11.7803 9.78027C11.71 9.84961 11.6299 9.91015 11.54 9.93945C11.4502 9.97949 11.3496 10 11.25 10Z" fill="#58181D"/>
<path d="M8.72949 13C8.62988 13 8.53027 12.9795 8.43945 12.9394C8.34961 12.8994 8.26953 12.8496 8.20019 12.7803C8.05957 12.6396 7.97949 12.4502 7.97949 12.25C7.97949 12.1494 8 12.0596 8.03027 11.96C8.06933 11.8701 8.12988 11.79 8.20019 11.7197C8.26953 11.6494 8.3496 11.5996 8.43945 11.5596C8.71972 11.4394 9.0498 11.5098 9.25976 11.7197C9.33007 11.79 9.37988 11.8701 9.41992 11.96C9.45996 12.0596 9.47949 12.1494 9.47949 12.25C9.47949 12.4502 9.39941 12.6396 9.25976 12.7803C9.12011 12.9199 8.91992 13 8.72949 13Z" fill="#58181D"/>
<path d="M11.25 13C11.0596 13 10.8594 12.9199 10.7197 12.7803C10.5801 12.6396 10.5 12.4502 10.5 12.25C10.5 12.1494 10.5195 12.0596 10.5596 11.96C10.5996 11.8701 10.6494 11.79 10.7197 11.7197C11.0098 11.4395 11.5 11.4395 11.7803 11.7197C11.9199 11.8594 12 12.0498 12 12.25C12 12.3496 11.9795 12.4502 11.9395 12.54C11.8994 12.6299 11.8496 12.71 11.7803 12.7803C11.6397 12.9199 11.4502 13 11.25 13Z" fill="#58181D"/>
<path d="M8.7295 16C8.53028 16 8.33985 15.9199 8.2002 15.7803C8.12989 15.71 8.06934 15.6299 8.04004 15.54C8 15.4502 7.97949 15.3496 7.97949 15.25C7.97949 15.1494 8 15.0596 8.04004 14.96C8.06934 14.8701 8.12988 14.79 8.2002 14.7197C8.4795 14.4395 8.96973 14.4395 9.25977 14.7197C9.33008 14.79 9.37989 14.8701 9.41993 14.96C9.45997 15.0596 9.4795 15.1494 9.4795 15.25C9.4795 15.3496 9.45997 15.4502 9.41993 15.54C9.37989 15.6299 9.33009 15.71 9.25977 15.7803C9.12012 15.9199 8.91993 16 8.7295 16Z" fill="#58181D"/>
<path d="M11.25 16C11.1494 16 11.0596 15.9795 10.96 15.9395C10.8701 15.9102 10.79 15.8496 10.7197 15.7803C10.6494 15.71 10.5996 15.6299 10.5596 15.54C10.5195 15.4502 10.5 15.3496 10.5 15.25C10.5 15.1494 10.5195 15.0596 10.5596 14.96C10.5996 14.8701 10.6494 14.79 10.7197 14.7197C10.7901 14.6494 10.8701 14.5996 10.96 14.5596C11.1494 14.4795 11.3496 14.4795 11.54 14.5596C11.6299 14.5996 11.71 14.6494 11.7803 14.7197C11.8496 14.79 11.9102 14.8701 11.9395 14.96C11.9795 15.0596 12 15.1494 12 15.25C12 15.4502 11.9199 15.6397 11.7803 15.7803C11.71 15.8496 11.6299 15.9102 11.54 15.9395C11.4502 15.9795 11.3496 16 11.25 16Z" fill="#58181D"/>
<path d="M15.75 12.5C15.6494 12.5 15.5596 12.4795 15.46 12.4394C15.3701 12.3994 15.29 12.3496 15.2197 12.2803C15.1494 12.21 15.0996 12.1299 15.0596 12.04C15.0195 11.9502 15 11.8496 15 11.75C15 11.6494 15.0195 11.5596 15.0596 11.46C15.0996 11.3701 15.1494 11.29 15.2197 11.2197C15.2901 11.1494 15.3701 11.0996 15.46 11.0596C15.7402 10.9394 16.0693 11.0098 16.2803 11.2197C16.3496 11.29 16.4101 11.3701 16.4394 11.46C16.4795 11.5596 16.5 11.6494 16.5 11.75C16.5 11.8496 16.4795 11.9502 16.4394 12.04C16.4101 12.1299 16.3496 12.21 16.2803 12.2803C16.1396 12.4199 15.9502 12.5 15.75 12.5Z" fill="#58181D"/>
<path d="M15.75 15.5C15.5498 15.5 15.3594 15.4199 15.2197 15.2803C15.0801 15.1396 15 14.9502 15 14.75C15 14.5498 15.0801 14.3594 15.2197 14.2197C15.4297 14.0098 15.7598 13.9395 16.04 14.0596C16.1299 14.0996 16.21 14.1494 16.2803 14.2197C16.3496 14.29 16.4101 14.3701 16.4394 14.46C16.4795 14.5596 16.5 14.6494 16.5 14.75C16.5 14.8496 16.4795 14.9502 16.4394 15.04C16.4101 15.1299 16.3496 15.21 16.2803 15.2803C16.1396 15.4199 15.9502 15.5 15.75 15.5Z" fill="#58181D"/>
</svg>
