<svg width="20" height="20" viewBox="0 0 20 20" fill="none" xmlns="http://www.w3.org/2000/svg">
<path d="M17.1807 4.80859C16.752 4.29492 16.1226 4 15.4531 4H5.08698L4.94629 3.13867C4.76807 2.04394 3.83399 1.25 2.72559 1.25H1.00098C0.586917 1.25 0.250977 1.58594 0.250977 2C0.250977 2.41406 0.586917 2.75 1.00098 2.75H2.72559C3.09522 2.75 3.40625 3.01465 3.46582 3.37988L5.05518 13.1113C5.2334 14.2061 6.16748 15 7.27588 15H16.0005C16.4145 15 16.7505 14.6641 16.7505 14.25C16.7505 13.8359 16.4145 13.5 16.0005 13.5H7.27588C6.90625 13.5 6.59522 13.2353 6.53565 12.8701L6.23023 11H14.9985C16.0864 11 17.0176 10.2236 17.2124 9.15234L17.667 6.65234C17.7866 5.99414 17.6094 5.32226 17.1807 4.80859ZM16.1914 6.38476L15.7368 8.88378C15.6719 9.2412 15.3613 9.49999 14.9985 9.49999H5.98523L5.33197 5.49999H15.4531C15.7588 5.49999 15.9453 5.66894 16.0293 5.76952C16.1133 5.8701 16.2461 6.08398 16.1914 6.38476ZM15.0006 19.2501C14.3102 19.2501 13.7506 18.6904 13.7506 18.0001C13.7506 17.3097 14.3102 16.7501 15.0006 16.7501C15.6909 16.7501 16.2506 17.3097 16.2506 18.0001C16.2506 18.6904 15.6909 19.2501 15.0006 19.2501ZM7.00167 19.2501C6.31131 19.2501 5.75167 18.6904 5.75167 18.0001C5.75167 17.3097 6.31131 16.7501 7.00167 16.7501C7.69203 16.7501 8.25167 17.3097 8.25167 18.0001C8.25167 18.6904 7.69203 19.2501 7.00167 19.2501Z" fill="#58181D"/>
</svg>
