<svg width="20" height="20" viewBox="0 0 20 20" fill="none" xmlns="http://www.w3.org/2000/svg">
<path d="M10 1.25C7.46655 1.25 5.18835 2.3385 3.58911 4.0647C3.57129 4.08081 3.54883 4.08826 3.53223 4.10645C3.51563 4.12464 3.51026 4.14795 3.49585 4.16724C2.10461 5.71704 1.25 7.75806 1.25 10C1.25 12.4089 2.22852 14.5933 3.80884 16.177C3.81128 16.1796 3.81201 16.1831 3.81446 16.1855C3.81702 16.1881 3.82056 16.1887 3.823 16.1912C5.40674 17.7714 7.59107 18.75 10 18.75C14.8252 18.75 18.75 14.8252 18.75 10C18.75 5.1748 14.8252 1.25 10 1.25ZM9.25 8.30176L5.18359 4.59595C6.29016 3.60852 7.69531 2.94947 9.25 2.78894V8.30176ZM4.17285 5.70435L8.91418 10.0253L4.37451 14.5649C3.36035 13.3176 2.75 11.7294 2.75 10C2.75 8.39124 3.28296 6.90833 4.17285 5.70435ZM10 17.25C8.27063 17.25 6.68237 16.6397 5.43506 15.6255L10.5303 10.5303C10.5347 10.5259 10.5364 10.5194 10.5405 10.5149C10.5447 10.5106 10.5505 10.5093 10.5547 10.5049C10.5808 10.4761 10.5913 10.4402 10.6123 10.4087C10.6394 10.368 10.6731 10.3323 10.6921 10.2866C10.6951 10.2794 10.6958 10.272 10.6985 10.2647C10.7158 10.2189 10.7178 10.1714 10.7258 10.1238C10.7329 10.082 10.75 10.042 10.75 10V2.78894C14.3968 3.1654 17.25 6.25513 17.25 10C17.25 13.998 13.998 17.25 10 17.25Z" fill="#58181D"/>
</svg>
