<svg width="20" height="20" viewBox="0 0 20 20" fill="none" xmlns="http://www.w3.org/2000/svg">
<path d="M17.7715 5.08203L14.9824 3.47265C14.4541 3.16601 13.793 3.16015 13.2607 3.45507L10 5.25292L6.73731 3.45507C6.20313 3.1621 5.54395 3.16698 5.01758 3.47265L2.22754 5.08203C1.4707 5.52051 1 6.33594 1 7.20996V11.7656C1 12.6406 1.4707 13.456 2.22852 13.8926L8.77149 17.6709C9.1504 17.8896 9.5752 17.999 10 17.999C10.4248 17.999 10.8496 17.8896 11.2285 17.6709L17.7715 13.8926C18.5293 13.456 19 12.6406 19 11.7656V7.20996C19 6.33594 18.5293 5.52051 17.7715 5.08203ZM5.76758 4.77148C5.80567 4.74902 5.84961 4.73828 5.89258 4.73828C5.9336 4.73828 5.97559 4.74902 6.0127 4.76953L9.6377 6.7666C9.86426 6.88965 10.1358 6.88965 10.3623 6.7666L13.9854 4.76855C13.9854 4.76757 13.9863 4.76757 13.9863 4.76757C14.0625 4.72558 14.1543 4.72655 14.2305 4.7705L16.791 6.24841L10.0007 9.99414L3.20534 6.25L5.76758 4.77148ZM2.97852 12.5938C2.6836 12.4238 2.5 12.1065 2.5 11.7656V7.57508L9.25 11.294V16.2153L2.97852 12.5938ZM17.0215 12.5938L10.75 16.2153V11.293L17.5 7.56958V11.7656C17.5 12.1064 17.3164 12.4238 17.0215 12.5938Z" fill="#58181D"/>
</svg>
