<svg width="20" height="20" viewBox="0 0 20 20" fill="none" xmlns="http://www.w3.org/2000/svg">
<path d="M6.17871 18.8223C5.98633 18.8223 5.79492 18.749 5.64844 18.6025C5.35547 18.3096 5.35547 17.834 5.64844 17.542L6.58692 16.6045C6.87989 16.3105 7.3545 16.3125 7.64747 16.6045C7.94044 16.8975 7.94044 17.373 7.64747 17.665L6.70899 18.6025C6.56251 18.749 6.37011 18.8223 6.17871 18.8223Z" fill="#58181D"/>
<path d="M1.91797 14.6025C1.72559 14.6025 1.53418 14.5293 1.3877 14.3828C1.09473 14.0898 1.09473 13.6143 1.3877 13.3223L2.32618 12.3848C2.62013 12.0908 3.09473 12.0928 3.38673 12.3848C3.6797 12.6777 3.6797 13.1533 3.38673 13.4453L2.44825 14.3828C2.30177 14.5293 2.10937 14.6025 1.91797 14.6025Z" fill="#58181D"/>
<path d="M2.49818 18.252C2.30677 18.252 2.11537 18.1797 1.96888 18.0342C1.67591 17.7412 1.67396 17.2666 1.96595 16.9727L4.46204 14.4629C4.75599 14.1709 5.22962 14.168 5.52356 14.46C5.81653 14.7529 5.81848 15.2275 5.52649 15.5215L3.0304 18.0313C2.88294 18.1777 2.69057 18.252 2.49818 18.252Z" fill="#58181D"/>
<path d="M18.1796 1.66213C17.5429 1.07717 16.6044 0.874035 15.3983 1.0508C13.0739 1.39504 11.226 2.66018 9.74233 4.0718C9.36953 4.02663 8.99502 3.99928 8.64931 4.00002C5.66201 4.02931 2.89247 5.64845 1.24013 8.33302C0.934466 8.82911 0.920786 9.45119 1.20497 9.95411C1.4872 10.4531 1.99696 10.75 2.56532 10.75H5.36781C5.45521 11.262 5.69642 11.7468 6.07997 12.1299L7.87001 13.9199C8.25697 14.3076 8.74159 14.5437 9.24989 14.6314V17.4131C9.24501 17.9942 9.54188 18.5108 10.0458 18.7949C10.287 18.9307 10.5556 18.999 10.8251 18.999C11.1161 18.999 11.4091 18.919 11.6679 18.7598C14.3514 17.1074 15.9706 14.3379 15.9999 11.3506C16.0031 10.989 15.9743 10.6192 15.9281 10.2486C15.9989 10.1743 16.0819 10.0987 16.1503 10.0244C17.702 8.34377 18.6112 6.61819 18.9296 4.74709C19.161 3.38771 18.9013 2.32131 18.1796 1.66213ZM5.78994 8.83986C5.71279 8.95119 5.64932 9.06544 5.5917 9.18361L5.58877 9.18947C5.57925 9.20925 5.57412 9.23 5.56509 9.25002H2.62344C2.54434 9.25002 2.49356 9.16018 2.53482 9.09278C3.81631 7.00441 6.0209 5.63796 8.35831 5.52223C8.25186 5.64454 8.13956 5.76857 8.038 5.88869C7.3173 6.74025 6.56143 7.73244 5.78994 8.83986ZM10.9076 17.4619C10.8402 17.5037 10.7499 17.4529 10.7499 17.3738V14.4385C10.8913 14.374 11.0297 14.3006 11.161 14.209C12.4472 13.313 13.5326 12.461 14.4779 11.6297C14.361 13.9712 13.0128 16.1592 10.9076 17.4619ZM17.4511 4.49513C17.1825 6.07129 16.3974 7.54689 15.0487 9.00685C13.8896 10.2617 12.3378 11.5606 10.3036 12.9785C9.87393 13.2783 9.29776 13.2266 8.93057 12.8594L7.14053 11.0684C6.82022 10.749 6.73916 10.2578 6.93741 9.84474C6.9628 9.79395 6.98917 9.74317 7.02139 9.69629C7.76553 8.62891 8.49307 7.67384 9.18252 6.85743C10.7948 4.95216 12.8192 2.94825 15.6171 2.53516C16.1278 2.45899 16.8085 2.43946 17.1669 2.76856C17.6015 3.16602 17.5312 4.0215 17.4511 4.49513Z" fill="#58181D"/>
<path d="M14.5 6.75C14.5 7.44036 13.9404 8 13.25 8C12.5596 8 12 7.44036 12 6.75C12 6.05964 12.5596 5.5 13.25 5.5C13.9404 5.5 14.5 6.05964 14.5 6.75Z" fill="#58181D"/>
</svg>
