<svg width="20" height="20" viewBox="0 0 20 20" fill="none" xmlns="http://www.w3.org/2000/svg">
<path d="M5.75 18.0029H4.25C3.00977 18.0029 2 16.9932 2 15.7529V14.2529C2 13.0127 3.00977 12.0029 4.25 12.0029H5.75C6.99023 12.0029 8 13.0127 8 14.2529V15.7529C8 16.9932 6.99023 18.0029 5.75 18.0029ZM4.25 13.5029C3.83691 13.5029 3.5 13.8398 3.5 14.2529V15.7529C3.5 16.166 3.83691 16.5029 4.25 16.5029H5.75C6.16309 16.5029 6.5 16.166 6.5 15.7529V14.2529C6.5 13.8398 6.16309 13.5029 5.75 13.5029H4.25Z" fill="#58181D"/>
<path d="M5.75 11.0029H4.25C3.00977 11.0029 2 9.99316 2 8.75293V7.25293C2 6.0127 3.00977 5.00293 4.25 5.00293H5.75C6.99023 5.00293 8 6.0127 8 7.25293V8.75293C8 9.99316 6.99023 11.0029 5.75 11.0029ZM4.25 6.50293C3.83691 6.50293 3.5 6.83984 3.5 7.25293V8.75293C3.5 9.16602 3.83691 9.50293 4.25 9.50293H5.75C6.16309 9.50293 6.5 9.16602 6.5 8.75293V7.25293C6.5 6.83984 6.16309 6.50293 5.75 6.50293H4.25Z" fill="#58181D"/>
<path d="M12.75 18.0029H11.25C10.0098 18.0029 9 16.9932 9 15.7529V14.2529C9 13.0127 10.0098 12.0029 11.25 12.0029H12.75C13.9902 12.0029 15 13.0127 15 14.2529V15.7529C15 16.9932 13.9902 18.0029 12.75 18.0029ZM11.25 13.5029C10.8369 13.5029 10.5 13.8398 10.5 14.2529V15.7529C10.5 16.166 10.8369 16.5029 11.25 16.5029H12.75C13.1631 16.5029 13.5 16.166 13.5 15.7529V14.2529C13.5 13.8398 13.1631 13.5029 12.75 13.5029H11.25Z" fill="#58181D"/>
<path d="M15.251 11.0029H11.751C10.2344 11.0029 9.00098 9.76953 9.00098 8.25293V4.75293C9.00098 3.23633 10.2344 2.00293 11.751 2.00293H15.251C16.7676 2.00293 18.001 3.23633 18.001 4.75293V8.25293C18.001 9.76953 16.7676 11.0029 15.251 11.0029ZM11.751 3.50293C11.0615 3.50293 10.501 4.06348 10.501 4.75293V8.25293C10.501 8.94238 11.0615 9.50293 11.751 9.50293H15.251C15.9404 9.50293 16.501 8.94238 16.501 8.25293V4.75293C16.501 4.06348 15.9404 3.50293 15.251 3.50293H11.751Z" fill="#58181D"/>
</svg>
