<svg width="28" height="28" viewBox="0 0 28 28" fill="none" xmlns="http://www.w3.org/2000/svg">
<path d="M14 15.491C11.8822 15.491 10.1582 13.7643 10.1582 11.641C10.1582 9.51778 11.8822 7.79102 14 7.79102C16.1178 7.79102 17.8418 9.51778 17.8418 11.641C17.8418 13.7643 16.1178 15.491 14 15.491ZM14 9.89102C13.0402 9.89102 12.2582 10.6758 12.2582 11.641C12.2582 12.6062 13.0402 13.391 14 13.391C14.9598 13.391 15.7418 12.6062 15.7418 11.641C15.7418 10.6758 14.9598 9.89102 14 9.89102Z" fill="#F5BE71"/>
<path d="M23.4504 4.19922H4.55039C2.81407 4.19922 1.40039 5.6129 1.40039 7.34922V20.6492C1.40039 22.3855 2.81407 23.7992 4.55039 23.7992H23.4504C25.1867 23.7992 26.6004 22.3855 26.6004 20.6492V7.34922C26.6004 5.6129 25.1867 4.19922 23.4504 4.19922ZM10.3791 21.6992C10.4871 20.5877 10.8169 19.4827 11.642 19.0045C13.1596 19.5951 14.8508 19.5965 16.3629 19.0031C17.1606 19.4933 17.4703 20.667 17.5831 21.6992H10.3791ZM24.5004 20.6492C24.5004 21.2275 24.0287 21.6992 23.4504 21.6992H19.6783C19.3922 18.4737 17.9406 17.2706 16.7019 16.8594C16.4422 16.7732 16.1633 16.7897 15.9185 16.9086C14.7004 17.491 13.3113 17.4924 12.0891 16.9127C11.8443 16.7979 11.5695 16.7801 11.3098 16.8649C9.54267 17.448 8.48754 19.1501 8.27631 21.6992H4.55038C3.97205 21.6992 3.50038 21.2275 3.50038 20.6492V7.34922C3.50038 6.77089 3.97205 6.29922 4.55038 6.29922H23.4504C24.0287 6.29922 24.5004 6.77089 24.5004 7.34922L24.5004 20.6492Z" fill="#F5BE71"/>
</svg>
